<?xml version="1.0" encoding="UTF-8"?>
<svg width="1200pt" height="1200pt" version="1.1" viewBox="0 0 1200 1200" xmlns="http://www.w3.org/2000/svg">
 <g>
  <path d="m750 918.72h-525c-5.168 0-9.3594-4.1875-9.3594-9.3594v-750c0-5.168 4.1914-9.3594 9.3594-9.3594h525c2.4844 0 4.8633 0.98438 6.6172 2.7422 1.7578 1.7539 2.7422 4.1367 2.7422 6.6172v590.64c0 5.168-4.1914 9.3594-9.3594 9.3594s-9.3594-4.1914-9.3594-9.3594v-581.28h-506.28v731.28h506.28v-56.281c0-5.168 4.1914-9.3594 9.3594-9.3594s9.3594 4.1914 9.3594 9.3594v65.641c0 2.4844-0.98438 4.8633-2.7422 6.6211-1.7539 1.7539-4.1328 2.7383-6.6172 2.7383z"/>
  <path d="m187.44 739.68c-4.4336-0.078126-8.2227-3.2148-9.1211-7.5586l-102.24-499.44c-0.41406-2.5156 0.1875-5.0898 1.6719-7.1602 1.4883-2.0742 3.7344-3.4688 6.25-3.8789l102.24-20.879c5.0703-1.0273 10.016 2.25 11.043 7.3164 1.0273 5.0703-2.25 10.016-7.3203 11.043l-93.961 19.078 100.68 490.2c0.49609 2.4375 0.003906 4.9688-1.3711 7.0391-1.3711 2.0703-3.5117 3.5117-5.9492 4.0039z"/>
  <path d="m665.64 281.28h-356.28c-5.168 0-9.3594-4.1914-9.3594-9.3594 0-5.1719 4.1914-9.3633 9.3594-9.3633h356.28c5.168 0 9.3594 4.1914 9.3594 9.3633 0 5.168-4.1914 9.3594-9.3594 9.3594z"/>
  <path d="m628.08 590.64h-318.72c-5.168 0-9.3594-4.1914-9.3594-9.3594 0-5.1719 4.1914-9.3594 9.3594-9.3594h318.72c5.1719 0 9.3633 4.1875 9.3633 9.3594 0 5.168-4.1914 9.3594-9.3633 9.3594z"/>
  <path d="m665.64 384h-281.64c-5.168 0-9.3594-4.1914-9.3594-9.3594 0-5.1719 4.1914-9.3594 9.3594-9.3594h281.64c5.168 0 9.3594 4.1875 9.3594 9.3594 0 5.168-4.1914 9.3594-9.3594 9.3594z"/>
  <path d="m328.08 384h-18.719c-5.168 0-9.3594-4.1914-9.3594-9.3594 0-5.1719 4.1914-9.3594 9.3594-9.3594h18.719c5.1719 0 9.3633 4.1875 9.3633 9.3594 0 5.168-4.1914 9.3594-9.3633 9.3594z"/>
  <path d="m637.44 796.92h-253.44c-4.793-0.54297-8.4141-4.5977-8.4141-9.4219s3.6211-8.8789 8.4141-9.4219h253.44c2.6797-0.30078 5.3672 0.55469 7.3789 2.3516 2.0117 1.8008 3.1641 4.3711 3.1641 7.0703s-1.1523 5.2695-3.1641 7.0703c-2.0117 1.7969-4.6992 2.6523-7.3789 2.3516z"/>
  <path d="m328.08 796.92h-18.719c-4.793-0.54297-8.4141-4.5977-8.4141-9.4219s3.6211-8.8789 8.4141-9.4219h18.719c4.7969 0.54297 8.418 4.5977 8.418 9.4219s-3.6211 8.8789-8.418 9.4219z"/>
  <path d="m637.44 693.72h-131.16c-5.1719 0-9.3594-4.1875-9.3594-9.3594 0-5.168 4.1875-9.3594 9.3594-9.3594h131.16c5.168 0 9.3594 4.1914 9.3594 9.3594 0 5.1719-4.1914 9.3594-9.3594 9.3594z"/>
  <path d="m328.08 693.72h-18.719c-5.168 0-9.3594-4.1875-9.3594-9.3594 0-5.168 4.1914-9.3594 9.3594-9.3594h18.719c5.1719 0 9.3633 4.1914 9.3633 9.3594 0 5.1719-4.1914 9.3594-9.3633 9.3594z"/>
  <path d="m393.72 693.72h-18.719c-5.168 0-9.3594-4.1875-9.3594-9.3594 0-5.168 4.1914-9.3594 9.3594-9.3594h18.719c5.1719 0 9.3594 4.1914 9.3594 9.3594 0 5.1719-4.1875 9.3594-9.3594 9.3594z"/>
  <path d="m459.36 693.72h-18.719c-5.1719 0-9.3594-4.1875-9.3594-9.3594 0-5.168 4.1875-9.3594 9.3594-9.3594h18.719c5.1719 0 9.3594 4.1914 9.3594 9.3594 0 5.1719-4.1875 9.3594-9.3594 9.3594z"/>
  <path d="m478.08 487.44h-168.72c-5.168 0-9.3594-4.1914-9.3594-9.3633 0-5.168 4.1914-9.3594 9.3594-9.3594h168.72c5.1719 0 9.3633 4.1914 9.3633 9.3594 0 5.1719-4.1914 9.3633-9.3633 9.3633z"/>
  <path d="m628.08 487.44h-9.3594c-5.168 0-9.3594-4.1914-9.3594-9.3633 0-5.168 4.1914-9.3594 9.3594-9.3594h9.3594c5.1719 0 9.3633 4.1914 9.3633 9.3594 0 5.1719-4.1914 9.3633-9.3633 9.3633z"/>
  <path d="m581.28 487.44h-9.3594c-5.1719 0-9.3633-4.1914-9.3633-9.3633 0-5.168 4.1914-9.3594 9.3633-9.3594h9.3594c5.168 0 9.3594 4.1914 9.3594 9.3594 0 5.1719-4.1914 9.3633-9.3594 9.3633z"/>
  <path d="m989.04 1078.1h-28.078c-16.148 0-31.637-6.4023-43.062-17.809-11.43-11.406-17.867-26.883-17.898-43.031v-121.92c0.03125-16.156 6.4648-31.645 17.891-43.07s26.91-17.859 43.07-17.891h28.078c16.16 0.03125 31.645 6.4648 43.07 17.891s17.859 26.914 17.891 43.07v121.92c-0.03125 16.148-6.4688 31.625-17.898 43.031-11.426 11.406-26.914 17.809-43.062 17.809zm-28.078-225c-11.195 0.035156-21.918 4.4922-29.836 12.41-7.9141 7.9141-12.375 18.641-12.406 29.832v121.92c0.03125 11.184 4.4961 21.898 12.414 29.793 7.918 7.8945 18.645 12.328 29.828 12.328h28.078c11.184 0 21.91-4.4336 29.828-12.328 7.918-7.8945 12.383-18.609 12.414-29.793v-121.92c-0.03125-11.191-4.4922-21.918-12.406-29.832-7.918-7.918-18.641-12.375-29.836-12.41z"/>
  <path d="m975 946.92c-2.5039 0-4.9023-1.0039-6.6602-2.7852-1.7617-1.7812-2.7305-4.1953-2.6992-6.6953v-281.16c0-2.6406-1.0781-65.641-65.641-65.641-64.559 0-65.641 63-65.641 65.641v65.641c0 5.168-4.1914 9.3594-9.3594 9.3594s-9.3594-4.1914-9.3594-9.3594v-65.641c0-29.16 17.641-84 84-84s84 55.199 84 84v281.16c0.078125 4.9453-3.707 9.0977-8.6406 9.4805z"/>
  <path d="m750 806.28c-22.285 0.97266-43.984-7.2773-60-22.801-15.281-16.977-23.82-38.961-24-61.801v-243.6c0-2.6406-1.0781-65.52-65.641-65.52-64.559 0-65.641 62.879-65.641 65.641v205.8c0 5.168-4.1875 9.3594-9.3594 9.3594-5.168 0-9.3594-4.1914-9.3594-9.3594v-205.92c0-29.16 17.641-84 84-84s84 55.199 84 84v243.84c0.33984 17.672 6.8828 34.66 18.48 48 12.742 11.852 29.785 17.969 47.16 16.918 17.438 1.0938 34.551-5.0742 47.281-17.039 11.59-13.332 18.094-30.336 18.359-48v-37.801c0-5.168 4.1875-9.3594 9.3594-9.3594 5.168 0 9.3594 4.1914 9.3594 9.3594v37.559c-0.23047 22.762-8.7617 44.652-24 61.562-15.953 15.656-37.664 24.035-60 23.16z"/>
 </g>
</svg>
